<svg width="200" height="100" viewBox="0 0 172 53.11328185113279">
    <g transform="matrix(2.36364 0 0 2.36364 -9.455 -8.273)">
        <g xmlns="http://www.w3.org/2000/svg" fillrule="evenodd">
          <path
            d="M25.5 9h-21c-.276 0-.5.214-.5.505v.99c0 .279.218.505.5.505h21c.276 0 .5-.214.5-.505v-.99A.499.499 0 0 0 25.5 9Zm0 5h-21c-.276 0-.5.214-.5.505v.99c0 .279.218.505.5.505h21c.276 0 .5-.214.5-.505v-.99a.499.499 0 0 0-.5-.505Zm0 5h-21c-.276 0-.5.214-.5.505v.99c0 .279.218.505.5.505h21c.276 0 .5-.214.5-.505v-.99a.499.499 0 0 0-.5-.505Z"
          />
        </g>
    </g>
</svg>