<svg width="396" height="122.28406751772434" viewBox="0 0 172 53.11328185113279" class="looka-1j8o68f"><defs id="SvgjsDefs4074"></defs><g id="SvgjsG4075" featurekey="G09qjj-0" transform="matrix(2.3636363636363638,0,0,2.3636363636363638,-9.454545454545455,-8.272727272727273)" fill="#111111"><title xmlns="http://www.w3.org/2000/svg">action_107-menu-view-layout-item-list</title><desc xmlns="http://www.w3.org/2000/svg">Created with Sketch.</desc><g xmlns="http://www.w3.org/2000/svg" stroke="none" stroke-width="1" fill="none" fill-rule="evenodd" xmlns:sketch="http://www.bohemiancoding.com/sketch/ns" sketch:type="MSPage"><g sketch:type="MSArtboardGroup" transform="translate(-315.000000, -495.000000)" fill="#111111"><path d="M340.499164,504 L319.500836,504 C319.224232,504 319,504.214035 319,504.504684 L319,505.495316 C319,505.774045 319.217742,506 319.500836,506 L340.499164,506 C340.775768,506 341,505.785965 341,505.495316 L341,504.504684 C341,504.225955 340.782258,504 340.499164,504 Z M340.499164,509 L319.500836,509 C319.224232,509 319,509.214035 319,509.504684 L319,510.495316 C319,510.774045 319.217742,511 319.500836,511 L340.499164,511 C340.775768,511 341,510.785965 341,510.495316 L341,509.504684 C341,509.225955 340.782258,509 340.499164,509 Z M340.499164,514 L319.500836,514 C319.224232,514 319,514.214035 319,514.504684 L319,515.495316 C319,515.774045 319.217742,516 319.500836,516 L340.499164,516 C340.775768,516 341,515.785965 341,515.495316 L341,514.504684 C341,514.225955 340.782258,514 340.499164,514 Z" sketch:type="MSShapeGroup"></path></g></g></g><g id="SvgjsG4076" featurekey="0yvIkK-0" transform="matrix(3.750938024257098,0,0,3.750938024257098,65.39834821878593,-21.905478634009174)" fill="#111111"><path d="M5.9 18.8 q3.04 0 4.8 -1.54 t1.78 -4.24 q0 -2.88 -1.75 -4.42 t-4.89 -1.56 l-2.76 0 l0 11.76 l2.82 0 z M6.18 5.84 q3.56 0 5.57 1.92 t2.05 5.26 q0 1.96 -0.89 3.55 t-2.56 2.51 t-4.09 0.92 l-4.5 0 l0 -14.16 l4.42 0 z M18.42 15.04 l6.5 0 l-3.2 -7.76 z M22.46 5.84 l5.96 14.16 l-1.48 0 l-1.54 -3.76 l-7.5 0 l-1.6 3.76 l-1.38 0 l6.18 -14.16 l1.36 0 z"></path></g></svg>